<svg xmlns="http://www.w3.org/2000/svg" viewBox="0 0 128 128" role="img" aria-labelledby="title desc">
  <title id="title">chrome stream layout icon</title>
  <desc id="desc">A cute rounded stream layout mascot with colorful stream panes, blush cheeks, and a small smile.</desc>
  <defs>
    <linearGradient id="bg" x1="16" y1="12" x2="112" y2="118" gradientUnits="userSpaceOnUse">
      <stop offset="0" stop-color="#fff2b8"/>
      <stop offset="0.5" stop-color="#9ee9df"/>
      <stop offset="1" stop-color="#b8ccff"/>
    </linearGradient>
    <linearGradient id="screen" x1="26" y1="28" x2="101" y2="108" gradientUnits="userSpaceOnUse">
      <stop offset="0" stop-color="#fffdf4"/>
      <stop offset="1" stop-color="#eef9ff"/>
    </linearGradient>
  </defs>
  <rect x="8" y="8" width="112" height="112" rx="30" fill="url(#bg)"/>
  <path d="M24 29c-5-8-11-10-17-7" fill="none" stroke="#273844" stroke-width="6" stroke-linecap="round"/>
  <path d="M104 29c5-8 11-10 17-7" fill="none" stroke="#273844" stroke-width="6" stroke-linecap="round"/>
  <circle cx="8" cy="22" r="5" fill="#ff7f9e"/>
  <circle cx="120" cy="22" r="5" fill="#ff7f9e"/>
  <rect x="20" y="26" width="88" height="82" rx="22" fill="#273844"/>
  <rect x="25" y="31" width="78" height="72" rx="18" fill="url(#screen)"/>
  <rect x="33" y="40" width="27" height="20" rx="8" fill="#4ed7c6"/>
  <rect x="68" y="40" width="27" height="20" rx="8" fill="#ff9a77"/>
  <rect x="33" y="67" width="27" height="20" rx="8" fill="#82b7ff"/>
  <rect x="68" y="67" width="27" height="20" rx="8" fill="#ffd76d"/>
  <path d="M46 50l7 4-7 4z" fill="#ffffff" opacity="0.95"/>
  <path d="M81 50l7 4-7 4z" fill="#ffffff" opacity="0.95"/>
  <circle cx="54" cy="94" r="3.4" fill="#273844"/>
  <circle cx="74" cy="94" r="3.4" fill="#273844"/>
  <circle cx="42" cy="93" r="4.5" fill="#ff9fba" opacity="0.75"/>
  <circle cx="86" cy="93" r="4.5" fill="#ff9fba" opacity="0.75"/>
  <path d="M59 98c3 3 7 3 10 0" fill="none" stroke="#273844" stroke-width="3.6" stroke-linecap="round"/>
  <path d="M99 29c8-6 15-6 19 1" fill="none" stroke="#ffffff" stroke-width="4" stroke-linecap="round" opacity="0.75"/>
</svg>
